<svg width="24" height="26" viewBox="0 0 24 26" fill="none" xmlns="http://www.w3.org/2000/svg">
<path fill-rule="evenodd" clip-rule="evenodd" d="M8.13979 0.727017L21.2539 8.30606C22.9274 9.27686 23.9575 11.0653 23.9575 13C23.9575 14.9347 22.9274 16.7231 21.2539 17.6939L8.13979 25.273C6.46028 26.2427 4.39096 26.2423 2.71176 25.2721C1.03256 24.3019 -0.00124049 22.5093 1.11714e-06 20.57V5.43C-0.00124049 3.49067 1.03256 1.69809 2.71176 0.727886C4.39096 -0.242318 6.46028 -0.242649 8.13979 0.727017ZM6.5 23L20 15C20.6748 14.6148 21.2582 13.777 21.2539 13C21.2609 12.2176 20.6777 10.8912 20 10.5L7 3.2413C6.672 3.04415 5.38267 3.0042 5 3C3.79122 3 2.5 4.29122 2.5 5.5V20.57C2.5 21.1505 3.08954 22.5895 3.5 23C3.91046 23.4105 4.91952 23.5 5.5 23.5C5.88267 23.4958 6.172 23.1972 6.5 23Z" fill="white"/>
</svg>
