<svg width="25" height="28" viewBox="0 0 25 28" fill="none" xmlns="http://www.w3.org/2000/svg">
<path d="M3 1C1.56478 1.01867 1.01876 2.17187 1 3.6V24.4C1 25.8359 1.55693 27 3 27C4.44307 27 5 25.8359 5 24.4V3.6C4.98124 2.17187 4.43522 1.01867 3 1Z" fill="white"/>
<path d="M21.5 1C20.0648 1.01867 19.5 2 19.5 3.6V24.4C19.5 25.8359 20.0569 27 21.5 27C22.9431 27 23.6452 25.8359 23.6452 24.4V3.6C23.6264 2.17187 22.9352 1.01867 21.5 1Z" fill="white"/>
<path d="M3 1C1.56478 1.01867 1.01876 2.17187 1 3.6V24.4C1 25.8359 1.55693 27 3 27C4.44307 27 5 25.8359 5 24.4V3.6C4.98124 2.17187 4.43522 1.01867 3 1Z" stroke="white" stroke-opacity="0.2"/>
<path d="M21.5 1C20.0648 1.01867 19.5 2 19.5 3.6V24.4C19.5 25.8359 20.0569 27 21.5 27C22.9431 27 23.6452 25.8359 23.6452 24.4V3.6C23.6264 2.17187 22.9352 1.01867 21.5 1Z" stroke="white" stroke-opacity="0.2"/>
</svg>
