<svg width="15" height="16" viewBox="0 0 15 16" fill="none" xmlns="http://www.w3.org/2000/svg">
<path d="M9.64249 2.92934H2.55249L4.20249 1.27934C4.34544 1.14005 4.42606 0.948928 4.42606 0.74934C4.42606 0.549753 4.34544 0.358628 4.20249 0.21934C3.90967 -0.0731134 3.43531 -0.0731134 3.14249 0.21934L0.212487 3.14934C0.144697 3.2187 0.0904364 3.30009 0.0524875 3.38934C-0.0174958 3.5729 -0.0174958 3.77578 0.0524875 3.95934C0.0878786 4.05288 0.14237 4.13802 0.212487 4.20934L3.14249 7.13934C3.28533 7.27651 3.47449 7.35503 3.67249 7.35934C3.8709 7.35704 4.06077 7.27822 4.20249 7.13934C4.34544 7.00005 4.42606 6.80893 4.42606 6.60934C4.42606 6.40975 4.34544 6.21863 4.20249 6.07934L2.55249 4.42934H9.64249C11.6859 4.42934 13.3425 6.08589 13.3425 8.12934V10.2993C13.3544 12.2935 11.7757 13.9343 9.78249 13.9993H1.88249C1.46827 13.9993 1.13249 14.3351 1.13249 14.7493C1.13249 15.1636 1.46827 15.4993 1.88249 15.4993H9.81249C12.6129 15.4073 14.8303 13.1012 14.8125 10.2993V8.12934C14.8125 5.26913 12.5026 2.94584 9.64249 2.92934Z" fill="black"/>
</svg>
