<svg width="26" height="26" viewBox="0 0 26 26" fill="none" xmlns="http://www.w3.org/2000/svg">
<path fill-rule="evenodd" clip-rule="evenodd" d="M22.8398 8.92402C23.0923 9.5394 23.6908 9.94197 24.3559 9.94391C25.2587 9.95119 25.9868 10.6851 25.9867 11.588V14.4253C25.9867 15.3333 25.2507 16.0694 24.3427 16.0694C23.6775 16.0713 23.079 16.4739 22.8265 17.0892C22.574 17.7046 22.7171 18.4115 23.1892 18.8802C23.8225 19.5291 23.8225 20.5647 23.1892 21.2137L21.2004 23.2024C20.5515 23.8357 19.5158 23.8357 18.8669 23.2024C18.5676 22.8853 18.1495 22.7075 17.7134 22.7119C17.2751 22.7083 16.8535 22.88 16.5423 23.1887C16.2311 23.4974 16.0561 23.9176 16.0561 24.3559C16.0561 25.2639 15.32 26 14.412 26H11.5747C10.6667 26 9.93065 25.2639 9.93065 24.3559C9.93066 23.9176 9.75563 23.4974 9.44443 23.1887C9.13324 22.88 8.71165 22.7083 8.27333 22.7119C7.83726 22.7075 7.41916 22.8853 7.11984 23.2024C6.47089 23.8357 5.43527 23.8357 4.78633 23.2024L2.79755 21.2137C2.16428 20.5647 2.16428 19.5291 2.79755 18.8802C3.26962 18.4115 3.41278 17.7046 3.16024 17.0892C2.90771 16.4739 2.30924 16.0713 1.64406 16.0694C1.20803 16.0694 0.789855 15.8961 0.481534 15.5878C0.173213 15.2795 0 14.8613 0 14.4253V11.588C0 10.68 0.73607 9.94391 1.64406 9.94391C2.30924 9.94197 2.90771 9.5394 3.16024 8.92402C3.41278 8.30865 3.26962 7.60173 2.79755 7.1331C2.16428 6.48415 2.16428 5.44853 2.79755 4.79959L4.78633 2.81081C5.43527 2.17754 6.47089 2.17754 7.11984 2.81081C7.41916 3.12795 7.83726 3.30576 8.27333 3.30138C8.71396 3.30494 9.13758 3.13148 9.44917 2.8199C9.76075 2.50831 9.93421 2.08469 9.93065 1.64406C9.93065 0.73607 10.6667 0 11.5747 0H14.4253C15.3333 0 16.0693 0.73607 16.0693 1.64406C16.0658 2.08469 16.2392 2.50831 16.5508 2.8199C16.8624 3.13148 17.286 3.30494 17.7267 3.30138C18.1627 3.30576 18.5808 3.12795 18.8802 2.81081C19.5291 2.17754 20.5647 2.17754 21.2137 2.81081L23.2024 4.79959C23.8357 5.44853 23.8357 6.48415 23.2024 7.1331C22.7304 7.60173 22.5872 8.30865 22.8398 8.92402ZM20.9485 16.3213C21.4661 15.0594 22.6512 14.1974 24.0112 14.0938L23.9714 11.9194C22.6262 11.8015 21.4596 10.9419 20.9485 9.69199C20.4478 8.43916 20.6771 7.01246 21.5451 5.9796L20.0204 4.45487C19.3738 4.99636 18.5568 5.29218 17.7134 5.29016C15.8345 5.28555 14.2644 3.8587 14.0806 1.98878H11.9062C11.7283 3.86168 10.1547 5.29174 8.27333 5.29016C7.42995 5.29218 6.61293 4.99636 5.96634 4.45487L4.48139 5.9796C5.33594 7.02034 5.54984 8.44633 5.03825 9.69199C4.52709 10.9419 3.3605 11.8015 2.0153 11.9194V14.0938C3.3605 14.2118 4.52709 15.0714 5.03825 16.3213C5.53894 17.5741 5.30965 19.0008 4.44161 20.0337L5.96634 21.5584C6.61293 21.0169 7.42995 20.7211 8.27333 20.7231C10.1523 20.7277 11.7224 22.1546 11.9062 24.0245H14.0806C14.2463 22.1455 15.8272 20.7089 17.7134 20.7231C18.5568 20.7211 19.3738 21.0169 20.0204 21.5584L21.5054 20.0337C20.6508 18.9929 20.4369 17.5669 20.9485 16.3213Z" fill="white"/>
<path fill-rule="evenodd" clip-rule="evenodd" d="M8.40591 13.0066C8.40591 10.473 10.4598 8.41917 12.9934 8.41917C14.21 8.41917 15.3769 8.90249 16.2372 9.76281C17.0975 10.6231 17.5808 11.79 17.5808 13.0066C17.5808 15.5402 15.527 17.5941 12.9934 17.5941C10.4598 17.5941 8.40591 15.5402 8.40591 13.0066ZM10.3417 13.0066C10.3417 14.4711 11.5289 15.6583 12.9934 15.6583C14.4579 15.6583 15.6451 14.4711 15.6451 13.0066C15.6451 11.5421 14.4579 10.3549 12.9934 10.3549C11.5289 10.3549 10.3417 11.5421 10.3417 13.0066Z" fill="white"/>
</svg>
