<svg width="15" height="16" viewBox="0 0 15 16" fill="none" xmlns="http://www.w3.org/2000/svg">
<path d="M10.64 7.38993C10.7828 7.5271 10.972 7.60562 11.17 7.60993C11.3684 7.60763 11.5583 7.52881 11.7 7.38993L14.63 4.45993C14.7001 4.38861 14.7546 4.30347 14.79 4.20993C14.8696 4.02827 14.8696 3.82159 14.79 3.63993C14.7521 3.55068 14.6978 3.46929 14.63 3.39993L11.7 0.46993C11.513 0.269276 11.2314 0.18668 10.9657 0.254544C10.7 0.322408 10.4925 0.529907 10.4246 0.795641C10.3568 1.06137 10.4393 1.34296 10.64 1.52993L12.29 3.17993H5.2C2.32812 3.17993 0 5.50805 0 8.37993V10.6599C0.0102074 13.4319 2.22863 15.6903 5 15.7499H12.18C12.3833 15.7553 12.5802 15.679 12.7268 15.538C12.8734 15.3971 12.9574 15.2033 12.96 14.9999C12.96 14.5896 12.6303 14.2554 12.22 14.2499H5.06C3.06126 14.1903 1.47369 12.5495 1.48 10.5499V8.37993C1.48 6.33648 3.13655 4.67993 5.18 4.67993H12.27L10.62 6.32993C10.333 6.62824 10.3419 7.10266 10.64 7.38993Z" fill="white"/>
</svg>
