<svg width="28" height="28" viewBox="0 0 28 28" fill="none" xmlns="http://www.w3.org/2000/svg">
<path fill-rule="evenodd" clip-rule="evenodd" d="M6.2 1H21.8C24.6719 1 27 3.32812 27 6.2V21.8C27 24.6719 24.6719 27 21.8 27H6.2C3.32812 27 1 24.6719 1 21.8V6.2C1 3.32812 3.32812 1 6.2 1ZM24.0981 24.0981C24.7076 23.4886 25.05 22.662 25.05 21.8V6.2C25.05 5.33805 24.7076 4.5114 24.0981 3.9019C23.4886 3.29241 22.662 2.95 21.8 2.95H6.2C4.40507 2.95 2.95 4.40507 2.95 6.2V21.8C2.95 22.662 3.29241 23.4886 3.9019 24.0981C4.5114 24.7076 5.33805 25.05 6.2 25.05H21.8C22.662 25.05 23.4886 24.7076 24.0981 24.0981Z" fill="white" stroke="white" stroke-opacity="0.2"/>
</svg>
